<svg xmlns="http://www.w3.org/2000/svg"  viewBox="0 0 32 32" x="0px" y="0px">
  <defs>
    <style>
      .cls-1 {
        fill-rule: evenodd;
      }

      .cls-1,
      .cls-2 {
        stroke-width: 0px;
      }
    </style>
  </defs>
  <path fill="white" class="cls-1"
    d="M27,14.5c.2763672,0,.5-.2236328.5-.5v-2c0-.0650635-.0131836-.1298218-.0384521-.190918-.0506592-.1224365-.1481934-.2199707-.2706299-.2706299-.0610962-.0252686-.1258545-.0384521-.190918-.0384521h-2c-.2763672,0-.5.2236328-.5.5s.2236328.5.5.5h.7929688l-4.7929688,4.7929688-2.6464844-2.6464844c-.1953125-.1953125-.5117188-.1953125-.7070312,0l-3,3c-.1953125.1953125-.1953125.5117188,0,.7070312s.5117188.1953125.7070312,0l2.6464844-2.6464844,2.6464844,2.6464844c.0976562.0976562.2255859.1464844.3535156.1464844s.2558594-.0488281.3535156-.1464844l5.1464844-5.1464844v.7929688c0,.2763672.2236328.5.5.5Z" />
  <path fill="white" class="cls-1"
    d="M30,29.5h-.5v-1.5c0-.2763672-.2236328-.5-.5-.5s-.5.2236328-.5.5v1.5h-3v-11h3v5.5c0,.2763672.2236328.5.5.5s.5-.2236328.5-.5v-6c0-.2763672-.2236328-.5-.5-.5h-4c-.2763672,0-.5.2236328-.5.5v11.5h-1v-9.5c0-.2763672-.2236328-.5-.5-.5h-4c-.2763672,0-.5.2236328-.5.5v9.5h-1v-7.5c0-.2763672-.2236328-.5-.5-.5h-4c-.2763672,0-.5.2236328-.5.5v7.5h-.5c-.2763672,0-.5.2236328-.5.5s.2236328.5.5.5h18c.2763672,0,.5-.2236328.5-.5s-.2236328-.5-.5-.5ZM13.5,29.5v-7h3v7h-3ZM19.5,29.5v-9h3v9h-3Z" />
  <path fill="white" class="cls-1"
    d="M11.090332,23.3261719c-1.9825439-.3640747-3.7423706-1.2784424-5.1498413-2.5596313l7.4124146-7.4124146c.0460205-.0458984.0828857-.100708.1082764-.1616821.0252075-.0603638.0388184-.1256104.0388184-.1924438V2.520874c4.4710693.2151489,8.3791504,3.2802124,9.6049805,7.6148682.0751953.2666016.3535156.4189453.6171875.3457031.265625-.0751953.4199219-.3515625.3447266-.6171875-1.3925781-4.9248047-5.9433594-8.3642578-11.0668945-8.3642578C6.6586914,1.5,1.5,6.6591797,1.5,13c0,5.5517578,3.9575195,10.3085938,9.409668,11.3105469.0307617.0048828.0610352.0078125.0908203.0078125.2368164,0,.4467773-.1689453.4912109-.4101562.0498047-.2714844-.1298828-.53125-.4013672-.5820312ZM12.5,2.5253296v9.9746704H2.5253296C2.7810059,7.1097412,7.1101074,2.7809448,12.5,2.5253296ZM2.5222168,13.5h9.270752l-6.5585938,6.5585938c-1.5990601-1.7612305-2.59375-4.0564575-2.7121582-6.5585938Z" />
  <circle fill="white" class="cls-2" cx="29" cy="26" r=".5" />
</svg>