<?xml version="1.0" encoding="utf-8"?>
<svg version="1.1" id="Layer_1" class="text-white" xmlns="http://www.w3.org/2000/svg" xmlns:xlink="http://www.w3.org/1999/xlink" x="0px" y="0px" viewBox="0 0 122.88 101.08" style="enable-background:new 0 0 122.88 101.08" xml:space="preserve">
    <style type="text/css">
        .st0{fill-rule:evenodd;clip-rule:evenodd;fill:white;}
    </style>
    <g>
        <path class="st0" d="M52.75,37.63c0.8,1.33,1.23,2.76,1.23,4.23c0,1.1-0.24,2.16-0.69,3.19c-1.97-0.94-4.05-1.68-6.22-2.2 C49.63,41.36,51.58,39.58,52.75,37.63L52.75,37.63z M39.49,47.25c14.87,0,26.92,12.05,26.92,26.92c0,14.87-12.05,26.92-26.92,26.92 c-14.87,0-26.92-12.05-26.92-26.92C12.57,59.3,24.63,47.25,39.49,47.25L39.49,47.25z M44.58,61.83h3.29c0.4,0,0.72,0.31,0.72,0.68 c0,0.14-0.04,0.27-0.12,0.38L35.14,86.14c-0.13,0.23-0.38,0.36-0.63,0.36v0h-3.29c-0.4,0-0.72-0.31-0.72-0.68 c0-0.14,0.04-0.27,0.12-0.38l13.34-23.25C44.08,61.96,44.32,61.83,44.58,61.83L44.58,61.83L44.58,61.83z M24.21,68.23 c0-0.55,0.07-1.1,0.19-1.63c0.13-0.52,0.32-1.04,0.58-1.54l0,0c0.27-0.52,0.61-0.99,1.02-1.39c0.41-0.4,0.88-0.74,1.43-1.01 c0.54-0.28,1.12-0.48,1.75-0.62c0.62-0.14,1.29-0.2,1.99-0.2c1.04,0,1.99,0.14,2.83,0.43c0.86,0.29,1.61,0.74,2.24,1.33 c0.63,0.59,1.1,1.28,1.42,2.06l0.01,0.04c0.3,0.76,0.45,1.61,0.45,2.54c0,0.95-0.15,1.82-0.46,2.59c-0.31,0.79-0.79,1.48-1.42,2.07 c-0.63,0.59-1.38,1.03-2.24,1.32c-0.84,0.29-1.79,0.43-2.83,0.43c-0.7,0-1.37-0.07-1.99-0.2c-0.64-0.14-1.22-0.34-1.75-0.62 l-0.05-0.03c-0.52-0.27-0.98-0.6-1.38-0.99c-0.41-0.4-0.75-0.87-1.02-1.39l-0.02-0.04c-0.25-0.49-0.43-0.99-0.56-1.51l-0.01-0.02 C24.27,69.32,24.21,68.78,24.21,68.23L24.21,68.23z M30.07,68.26c0,0.57,0.05,1.05,0.14,1.44c0.08,0.35,0.2,0.62,0.35,0.82 l0.01,0.02c0.06,0.08,0.14,0.14,0.22,0.18c0.1,0.04,0.23,0.07,0.38,0.07c0.27,0,0.47-0.08,0.59-0.25l0.01-0.02 c0.15-0.2,0.27-0.47,0.35-0.82c0.09-0.39,0.14-0.87,0.14-1.44c0-0.56-0.05-1.04-0.14-1.42h0c-0.08-0.35-0.2-0.63-0.36-0.84l0,0 c-0.06-0.08-0.13-0.14-0.21-0.17c-0.1-0.04-0.23-0.07-0.38-0.07c-0.16,0-0.29,0.02-0.39,0.07l0,0c-0.09,0.04-0.17,0.1-0.23,0.18 l0,0c-0.15,0.2-0.27,0.48-0.35,0.82l-0.01,0.02C30.11,67.23,30.07,67.71,30.07,68.26L30.07,68.26z M40.87,80.04 c0-1.12,0.26-2.19,0.77-3.19c0.26-0.52,0.6-0.98,1.01-1.38c0.41-0.4,0.88-0.74,1.43-1.03l0.04-0.02c0.53-0.27,1.1-0.47,1.72-0.6 c0.62-0.14,1.28-0.2,1.99-0.2c2.14,0,3.83,0.59,5.08,1.77c0.63,0.59,1.1,1.28,1.42,2.07c0.31,0.77,0.46,1.64,0.46,2.59 c0,0.95-0.15,1.81-0.46,2.59c-0.31,0.79-0.79,1.48-1.42,2.07c-1.25,1.18-2.95,1.77-5.08,1.77c-0.7,0-1.36-0.07-1.99-0.2 c-0.63-0.14-1.21-0.34-1.75-0.62l-0.01,0v0c-0.55-0.28-1.02-0.62-1.43-1.02c-0.41-0.4-0.75-0.87-1.01-1.38 c-0.25-0.5-0.45-1.02-0.57-1.55C40.93,81.14,40.87,80.6,40.87,80.04L40.87,80.04z M46.72,80.08c0,0.57,0.05,1.05,0.14,1.44 c0.08,0.35,0.2,0.63,0.35,0.83l0,0.01l0,0c0.06,0.08,0.13,0.14,0.21,0.17c0.1,0.04,0.23,0.07,0.39,0.07c0.28,0,0.49-0.09,0.62-0.25 l0.02-0.02c0.14-0.2,0.25-0.47,0.33-0.81c0.09-0.39,0.14-0.87,0.14-1.44c0-1.07-0.16-1.84-0.49-2.28 c-0.06-0.08-0.14-0.15-0.23-0.18l0,0c-0.1-0.05-0.23-0.07-0.39-0.07c-0.27,0-0.47,0.08-0.59,0.25l-0.03,0.04 c-0.14,0.2-0.25,0.47-0.33,0.8C46.77,79.03,46.72,79.51,46.72,80.08L46.72,80.08z M14.13,54.3C5.72,51.9,0,47.23,0,41.86 c0-1.47,0.43-2.89,1.23-4.23c2.92,4.89,10.78,8.65,20.51,9.65C18.84,49.2,16.27,51.57,14.13,54.3L14.13,54.3z M121.65,58.7 c0.8,1.34,1.23,2.76,1.23,4.23c0,7.81-12.09,14.15-26.99,14.15c-14.9,0-26.99-6.34-26.99-14.15c0-1.47,0.43-2.89,1.23-4.23 c3.43,5.75,13.67,9.92,25.76,9.92C107.98,68.62,118.22,64.45,121.65,58.7L121.65,58.7z M99.81,38.01l-0.05-3.5 c0.79-0.03,1.44-0.27,1.94-0.72c0.51-0.45,0.78-0.99,0.84-1.63c0.06-0.73-0.18-1.37-0.72-1.93c-0.55-0.56-1.42-0.89-2.61-0.99 c-1.11-0.1-1.97,0.08-2.58,0.54c-0.6,0.45-0.94,1.08-1.01,1.88c-0.09,1,0.28,1.94,1.1,2.81l-0.66,2.79l-9.31-2.61l0.8-9.22 l3.26,0.28l-0.57,6.58l3.04,0.81c-0.32-0.81-0.45-1.62-0.38-2.44c0.13-1.54,0.81-2.81,2.03-3.78c1.22-0.98,2.73-1.39,4.52-1.23 c1.5,0.13,2.8,0.68,3.89,1.65c1.5,1.32,2.16,3.03,1.98,5.13c-0.15,1.68-0.71,3.01-1.71,3.99C102.62,37.41,101.35,37.94,99.81,38.01 L99.81,38.01z M95.89,23.96c12.25,0,22.18,3.9,22.18,8.7c0,4.81-9.93,8.7-22.18,8.7c-12.25,0-22.18-3.9-22.18-8.7 C73.71,27.85,83.64,23.96,95.89,23.96L95.89,23.96L95.89,23.96z M95.89,21.07c14.9,0,26.99,6.34,26.99,14.15 c0,7.81-12.09,14.15-26.99,14.15c-14.9,0-26.99-6.34-26.99-14.15C68.9,27.41,80.99,21.07,95.89,21.07L95.89,21.07z M121.75,44.66 c0.74,1.29,1.13,2.65,1.13,4.06c0,7.81-12.09,14.15-26.99,14.15c-14.9,0-26.99-6.33-26.99-14.15c0-1.41,0.4-2.78,1.13-4.06 c3.33,5.83,13.65,10.08,25.86,10.08S118.42,50.49,121.75,44.66L121.75,44.66L121.75,44.66z M36.74,8.39l-0.31,3.51l-13.25-1.15 c1.09,1.39,1.85,2.98,2.27,4.77l-3.19-0.28c-0.22-0.94-0.7-1.99-1.44-3.13c-0.75-1.15-1.66-1.97-2.75-2.47l0.25-2.85L36.74,8.39 L36.74,8.39L36.74,8.39z M26.99,2.88c12.25,0,22.18,3.9,22.18,8.7c0,4.8-9.93,8.7-22.18,8.7c-12.25,0-22.18-3.9-22.18-8.7 C4.81,6.78,14.74,2.88,26.99,2.88L26.99,2.88z M26.99,0c14.9,0,26.99,6.33,26.99,14.15c0,7.81-12.09,14.15-26.99,14.15 S0,21.96,0,14.15C0,6.33,12.09,0,26.99,0L26.99,0z M52.85,23.58c0.74,1.29,1.13,2.65,1.13,4.06c0,7.81-12.09,14.15-26.99,14.15 S0,35.45,0,27.64c0-1.41,0.4-2.77,1.13-4.06c3.33,5.83,13.65,10.09,25.86,10.09C39.2,33.67,49.52,29.41,52.85,23.58L52.85,23.58 L52.85,23.58z M8.01,81.01C3.06,78.45,0,74.89,0,70.96c0-1.57,0.49-3.09,1.4-4.5c1.26,1.97,3.32,3.74,5.98,5.21 c-0.06,0.82-0.09,1.65-0.09,2.49C7.28,76.52,7.53,78.81,8.01,81.01L8.01,81.01z M8.23,66.37C3.16,63.8,0,60.19,0,56.2 c0-1.5,0.45-2.94,1.27-4.29c1.75,2.88,5.22,5.37,9.78,7.12C9.82,61.33,8.87,63.79,8.23,66.37L8.23,66.37z"/></g></svg>