<svg xmlns="http://www.w3.org/2000/svg" 
viewBox="0 0 92.608 100" x="0px" y="0px">
    <path  data-name="Commodities 4" opacity="0.7"
        d="M93.283,10.32c.709-.01,3.53.362,3.888.975a1.966,1.966,0,0,1-1.726,2.957H93.479V29.089c2.488,1.479,3.931,3.746,3.931,5.8s-1.443,4.321-3.931,5.8V58.573c2.488,1.479,3.931,3.746,3.931,5.8s-1.443,4.321-3.931,5.8V85.012h1.966a1.966,1.966,0,1,1,0,3.931h-15.3V85.012h9.406V67.871l1.344-.449c2.234-.745,2.588-2.077,2.588-3.048s-.354-2.3-2.588-3.048l-1.344-.449V38.387l1.344-.449c2.234-.745,2.588-2.077,2.588-3.048s-.354-2.3-2.588-3.048l-1.344-.449V14.251H51.023V31.392l-1.344.449c-2.234.745-2.588,2.077-2.588,3.048s.354,2.3,2.588,3.048l1.344.449V53.563H47.091V40.691c-2.488-1.479-3.931-3.746-3.931-5.8s1.443-4.321,3.931-5.8V14.251H45.126a1.966,1.966,0,1,1,0-3.931Zm-23,14.174,1.632,2.419s2.493,3.7,4.995,8.116a71.892,71.892,0,0,1,3.474,6.857,16.484,16.484,0,0,1,1.693,6.273,11.794,11.794,0,1,1-23.587,0,16.484,16.484,0,0,1,1.693-6.273,71.892,71.892,0,0,1,3.474-6.857c2.5-4.419,4.995-8.116,4.995-8.116Zm0,7.267c-.9,1.386-1.6,2.379-3.2,5.2A68.823,68.823,0,0,0,63.8,43.435a15.586,15.586,0,0,0-1.378,4.722,7.862,7.862,0,1,0,15.725,0,15.586,15.586,0,0,0-1.378-4.722,68.819,68.819,0,0,0-3.282-6.473C71.889,34.14,71.185,33.147,70.285,31.761ZM47.093,57.494a1.966,1.966,0,0,1,1.858,1.332l3.344,7.666a1.966,1.966,0,0,1,.1.633h6.685a1.966,1.966,0,0,1,1.858,1.332l3.344,7.666a1.966,1.966,0,0,1,.1.633h4.522a1.966,1.966,0,0,1,1.858,1.332l3.344,7.666a1.966,1.966,0,0,1,.1.633v1.966a1.966,1.966,0,0,1-1.966,1.966H6.8a1.966,1.966,0,0,1-1.966-1.966V86.388a1.966,1.966,0,0,1,.1-.633l3.344-7.666a1.966,1.966,0,0,1,1.858-1.332h4.522a1.966,1.966,0,0,1,.1-.633l3.344-7.666a1.966,1.966,0,0,1,1.858-1.332h6.685a1.966,1.966,0,0,1,.1-.633L30.1,58.826a1.966,1.966,0,0,1,1.858-1.332Zm-1.409,3.931H33.364l-2.672,5.7H48.356Zm11.99,9.631H45.354l-2.672,5.7H60.346Zm-23.98,0H21.374l-2.672,5.7H36.366ZM67.5,80.688H55.182l-2.672,5.7H70.174Zm-21.818,0H33.364l-2.672,5.7H48.356Zm-21.818,0H11.546l-2.672,5.7H26.538Z"
        transform="translate(-4.831 -10.32)" />
</svg>