<?xml version="1.0" encoding="UTF-8"?>
<svg xmlns="http://www.w3.org/2000/svg" id="a" width="865.76" height="682.89" viewBox="0 0 865.76 682.89">
  <path d="M785.49,559.21l2.5,1.09c2.78,1.22,6.04,.46,8-1.86h0c1.98-2.34,2.17-5.7,.47-8.25-3.66-5.49-10.18-14.59-15.13-17.76v14.55s3.07,4.37,4.16,12.23Z" fill="#7d74f6" stroke="#002346" stroke-miterlimit="10"></path>
  <rect x="351.93" y="180.76" width="422.82" height="279.22" fill="#e6e7e8" stroke="#002346" stroke-miterlimit="10"></rect>
  <line x1="689.94" y1="260.8" x2="689.94" y2="368.7" fill="none" stroke="#002346" stroke-linecap="round" stroke-linejoin="round"></line>
  <path d="M64.36,560.54l38.15-10.62c2.78-.77,5.76-.07,7.91,1.86l9.32,8.42" fill="none" stroke="#002346" stroke-linecap="round" stroke-linejoin="round"></path>
  <path d="M177.74,560.54l-38.15-10.62c-2.78-.77-5.76-.07-7.91,1.86l-9.32,8.42" fill="none" stroke="#002346" stroke-linecap="round" stroke-linejoin="round"></path>
  <path d="M309.65,304.29s-3.47,2.71,.16,9v21.25l-11.93,.72-7-15.47-7-9.66s13.71-2.69,14-17.08l1-.47s1.44,9.47,10.77,11.71Z" fill="#f1b2c0" stroke="#002346" stroke-miterlimit="10"></path>
  <circle cx="180.75" cy="569.49" r="10.38" fill="#e6e7e8" stroke="#002346" stroke-miterlimit="10"></circle>
  <polygon points="110.43 545.34 113.47 531.97 128.67 531.97 131.1 545.34 110.43 545.34" fill="#e6e7e8" stroke="#002346" stroke-miterlimit="10"></polygon>
  <rect x="115.48" y="498.96" width="11.45" height="33.01" fill="#fff" stroke="#002346" stroke-miterlimit="10"></rect>
  <rect x="97.63" y="493.04" width="46.11" height="5.92" fill="#e6e7e8" stroke="#002346" stroke-miterlimit="10"></rect>
  <path d="M204.59,449.02c0,.59-.07,1.17-.22,1.74l-8,32.09-35.02,9.57-5.23,1.43H70.89c-5.26,.01-9.9-3.46-11.39-8.51l-11.31-38.19-9.02-30.48c-1.55-5.25,1.45-10.76,6.7-12.31,.91-.27,1.85-.41,2.8-.41h47l57.16,37.75h44.45c4.04,.01,7.31,3.28,7.31,7.32Z" fill="#fff" stroke="#002346" stroke-miterlimit="10"></path>
  <path d="M162.01,491.5c-.17,.17-.39,.49-.66,.91l-5.23,1.43H70.89c-5.26,.01-9.9-3.46-11.39-8.51l-12.8-43.39,84.16,.16,11.82,40.33s3.31,8.71,17.79,6.25c.92-.17,1.8,.44,1.98,1.35,.09,.53-.07,1.08-.44,1.47Z" fill="#fff" stroke="#002346" stroke-miterlimit="10"></path>
  <path d="M131.1,522.54l25-28.69s8-.92,5.6-4.89c0,0-14.44,2.87-19-6.52l-9-30.53h7.88l42.33,16.73c3.56,1.36,6.45,4.05,8.06,7.51,1.78,4,2.15,9.57-3.53,16.11l-42.79,41.92-14.55-11.64Z" fill="#002346" stroke="#002346" stroke-miterlimit="10"></path>
  <path d="M178.25,527.77l-16.13-9.72,26.32-25.79s7.64-7.2,3.53-16.11c-1.59-3.47-4.49-6.16-8.06-7.51l-42.33-16.73h4.6c10.81,0,21.56,1.68,31.85,5l29.74,9.6c4.93,1.54,8.95,5.14,11,9.88,1.17,2.65,1.45,5.61,.8,8.43-.63,2.46-1.95,4.7-3.79,6.45l-37.53,36.5Z" fill="#002346" stroke="#002346" stroke-miterlimit="10"></path>
  <polygon points="131.1 522.54 125.28 527.77 140.12 536.51 143.74 532.64 131.1 522.54" fill="#f1b2c0" stroke="#002346" stroke-miterlimit="10"></polygon>
  <path d="M112.42,542.81l12.86-15,14.84,8.73,4.17,7.8c3.37,6.33,8.33,11.68,14.4,15.51l2.22,1.41c1.68,1.06,2.51,3.06,2.09,5h0c-.5,2.31-2.64,3.89-5,3.7l-5.56-.48c-4.83-.41-9.48-2.01-13.54-4.66l-25.73-16.8c-1.62-1.04-2.09-3.19-1.05-4.81,.09-.14,.19-.28,.3-.4Z" fill="#7d74f6" stroke="#002346" stroke-miterlimit="10"></path>
  <polygon points="174.83 525.71 171.56 529.52 162.12 518.05 174.83 525.71" fill="#f1b2c0" stroke="#002346" stroke-miterlimit="10"></polygon>
  <path d="M164.58,558.92l-22.27-24.74,1.44-1.54,1.91,1.54,16.47-16.13,9.45,11.49,2.12,11.53c.76,4.07,2.61,7.86,5.37,10.95l4.41,4.94c1.93,2.16,1.75,5.48-.41,7.41-.21,.19-.43,.36-.67,.51h0c-1.1,.71-2.42,.98-3.71,.76-3.4-.6-10.11-2.27-14.11-6.72Z" fill="#7d74f6" stroke="#002346" stroke-miterlimit="10"></path>
  <circle cx="62.41" cy="569.49" r="10.38" fill="#e6e7e8" stroke="#002346" stroke-miterlimit="10"></circle>
  <circle cx="121.2" cy="569.49" r="10.38" fill="#e6e7e8" stroke="#002346" stroke-miterlimit="10"></circle>
  <path d="M158.7,430.95c-5,25-12.18,20.96-12.18,20.96h-12.79l-1.88-6.41c-.59-2.01-2.43-3.39-4.53-3.39h-40.75l13.09-60.45c7.86-29.11,35.44-33.84,35.44-33.84,0,0,27.6,32.13,32.77,12.2l16.06,40.79c.52,1.33,1.59,2.38,2.94,2.87l27.18,11-13.11,6.47s-4.74-4.46-14.63-5.63l-17.39-.39,.31-4.36-6.73-.46-3.8,20.64Z" fill="#7d74f6" stroke="#002346" stroke-miterlimit="10"></path>
  <path d="M169.02,414.35h15.32c2.96,0,5.89,.48,8.69,1.44,4.2,1.45,9.23,4,7.83,7.49h-25.23v4.66l-11.35-.88s4.52-9.12,4.74-12.71Z" fill="#f1b2c0" stroke="#002346" stroke-miterlimit="10"></path>
  <path d="M227.73,423.28s-8.14-10.32-16-8.36-10.79,6.23-10.79,6.23l-.08,2.13h26.87Z" fill="#f1b2c0" stroke="#002346" stroke-miterlimit="10"></path>
  <path d="M134.92,348.18l3.07-7.76,13.29-10s-4.76,25.62,16.49,23l.1,6.54s-1,10.35-12.22,5.37c0,.06-6.07-1.43-20.73-17.15Z" fill="#f1b2c0" stroke="#002346" stroke-miterlimit="10"></path>
  <path d="M299.92,334.21l5.6-9.68c.23-.38,.49-.74,.76-1.1,3.11-4.09,3.53-10.17,3.53-10.17-1.45-4.66,2.33-3.41,2.33-3.41l15.14,11c7,3.49,7.86,15.71,7.86,15.71v72.48l-32.56,3.38c-4.87,.34-9.42-2.41-11.39-6.88-4.08,5.24-18.38,8-18.38,8-10.19,2.33-11.89-6.27-11.89-6.27-4.71,10.87-12.52,9.32-12.52,9.32l11.93-32.31h-16.3c-5.24-.88-2.91-9.9-2.91-9.9,.92-6.42,3.28-7.46,4.24-7.61,.24-.04,.41-.25,.41-.49,0-5.77,.87-62.29,38.71-55.93,0,0,8.15,2.91,15.43,23.86Z" fill="#e1cd84" stroke="#002346" stroke-miterlimit="10"></path>
  <path d="M282.98,310.4l-3.27,17.12c-.08,.39,.3,.72,.68,.59l10.69-3.64c.23-.08,.49,.02,.62,.23l7.31,12.45c.17,.29,.57,.35,.81,.11l11.19-10.74c.16-.15,.39-.19,.59-.09l7.27,3.48c.42,.2,.87-.2,.72-.64l-3.37-9.65-4.08-9.75s-3.49-1-2.33,3.41c0,0-.8,7.13-3.75,10.47l-6.14,10.48s-6.24-19.55-15.68-24l-1.26,.18Z" fill="#fff" stroke="#002346" stroke-miterlimit="10"></path>
  <path d="M244.03,384.28l-6.3,30.39s-15.82,2.79-15.24,8.61h19.28c2.75,0,5.21-1.73,6.14-4.32l12.42-34.68h-16.3Z" fill="#f1b2c0" stroke="#002346" stroke-miterlimit="10"></path>
  <path d="M232.39,579.88l-9.27-28.93c-.74-2.33-.13-4.88,1.58-6.62l20.21-20.54,15.42,12.75-17.36,12.4c-2.24,1.6-3.5,4.25-3.33,7l1.48,24.48-8.73-.54Z" fill="#e1cd84" stroke="#002346" stroke-miterlimit="10"></path>
  <path d="M263.7,527.95l31.26-18.77c13.1-7.86,13.68-19.31,13.68-19.31l8.16-79.49-8.73,.64c-14.26,2.26-16.89-5.46-16.89-5.46-5.53,6.11-19.37,7.48-19.37,7.48-8.57,1.85-10.9-5.74-10.9-5.74-3.55,7.38-8.68,8.94-11.13,9.26-.99,.13-1.88,.62-2.55,1.36h0c-.63,.71-1,1.61-1.05,2.56l-5.56,106.2c-.04,.73-.05,1.46-.05,2.19l.5,51.54h10.77l30.86-135.3-5.34,36.6c-.39,2.71-2.9,5.14-4.67,7.24l-9,39Z" fill="#7d74f6" stroke="#002346" stroke-miterlimit="10"></path>
  <path d="M799.29,430.85c4.63-23.12-8.59-47.63-12.63-54.43-.72-1.2-.87-2.66-.43-3.98l5.39-16.3c.34-1.03,1.74-1.15,2.26-.2l1.99,3.66c.21,.39,.2,.86-.03,1.24l-5.12,8.3c-1.02,1.66-.95,3.76,.19,5.34l7.04,9.76c1.4,1.94,3.29,3.48,5.48,4.46l4.42,1.97c1.84,.82,4,.32,5.29-1.23l12.81-15.37c1.04-1.25,1.33-2.96,.75-4.48l-14.08-37.04c-.26-.69-.82-1.23-1.52-1.48l-58.16-20.16c-5.73-1.84-11.9-1.84-17.63,0-3.24-.24-21.13,27.57-22.97,30.44-.05,.07-.15,.04-.15-.05v-3.32s-.04-.08-.08-.08h-10.01c-1.36,0-2.53,.96-2.8,2.3l-3.54,18.03c-.17,.88,.08,1.79,.68,2.45l13.26,14.77c.71,.79,1.74,1.22,2.8,1.17l8.81-.44c.59-.03,1.06,.49,.96,1.07-1.1,6.88-6.74,43.24-4.28,53.59h81.3Z" fill="#7d74f6" stroke="#002346" stroke-miterlimit="10"></path>
  <path d="M811.59,330.79l-2.89-3.85s-8.41-13.98-19.01-12.97c-1.78,.17-3.58-.25-5.01-1.32l-11.18-8.33v-16.1l-18.45,20.05-8.92,1.1,65.46,21.42Z" fill="#f1b2c0" stroke="#002346" stroke-miterlimit="10"></path>
  <path d="M739.88,375.85l-11.41,35.94c-.31,.99,.24,2.03,1.23,2.34,.29,.09,.59,.11,.88,.06l29.44-5.35c1.68-.31,3.07-1.51,3.6-3.14l11-33.65c.44-1.34-.3-2.79-1.64-3.23-.4-.13-.83-.16-1.25-.08l-29.88,5.37c-.93,.17-1.69,.84-1.97,1.74Z" fill="#fff" stroke="#002346" stroke-miterlimit="10"></path>
  <path d="M720.22,430.85s-.29,14.84,1.75,20.66c0,0,12.51,61.71,37,80.92l4.08,14.55h18.34v-54.72s16.1-43.07,17.94-61.41h-79.11Z" fill="#e1cd84" stroke="#002346" stroke-miterlimit="10"></path>
  <path d="M764.63,552.34l-1.62-5.36h18.34s6.11,6.7,3.49,21.25l-.81,6.62c-.2,1.65-1.61,2.89-3.27,2.89h-36.55c-4.22,0-4.48-6.36-.27-6.58,.23-.01,.48-.02,.73-.02h0c4.61-.37,8.93-2.35,12.22-5.6l5.87-5.82c1.94-1.92,2.66-4.76,1.87-7.38Z" fill="#7d74f6" stroke="#002346" stroke-miterlimit="10"></path>
  <polygon points="486.18 288.4 486.18 295.2 481.13 313.99 506.38 313.99 510.75 295.2 510.75 288.4 486.18 288.4" fill="#fff" stroke="#002346" stroke-miterlimit="10"></polygon>
  <rect x="531.96" y="249.01" width="25.25" height="24.91" rx="1.4" ry="1.4" fill="#fff" stroke="#002346" stroke-miterlimit="10"></rect>
  <path d="M532.6,290.64l-.64,15.6,5.73,7.75,16.45,1.33c.47,.04,.89-.31,.93-.78l2.06-22.33c.04-.48-.32-.91-.8-.94l-22.8-1.46c-.48-.03-.9,.34-.92,.83Z" fill="#fff" stroke="#002346" stroke-miterlimit="10"></path>
  <path d="M538.5,307.34l-6.47-1.09s-.04,.02-.03,.05l5.65,7.64s.05,.01,.05-.01l1.26-5.91c.07-.32-.14-.63-.46-.68Z" fill="#e6e7e8" stroke="#002346" stroke-miterlimit="10"></path>
  <path d="M567.36,290.33c-.29,3.34-1.79,20.44-2.55,25.67-.06,.4,.25,.76,.66,.76h28.84c.36,0,.66-.29,.66-.65,.05-3.61,.23-21.24-.89-27.13-.06-.33-.35-.56-.69-.54l-25.41,1.29c-.33,.02-.6,.27-.63,.6Z" fill="#e6e7e8" stroke="#002346" stroke-miterlimit="10"></path>
  <path d="M544.53,325.16l-.93,23.8c-.03,.84,.64,1.54,1.48,1.54h24.19c.8,0,1.46-.64,1.48-1.44l.68-23.8c.02-.84-.65-1.53-1.48-1.53h-23.94c-.8,0-1.45,.63-1.48,1.43Z" fill="#e6e7e8" stroke="#002346" stroke-miterlimit="10"></path>
  <path d="M546.45,327.57v19.13c0,.81,.66,1.47,1.47,1.47h18.84c.79,0,1.45-.63,1.47-1.42l.58-18.54c.03-.81-.61-1.49-1.43-1.52l-19.42-.59c-.83-.03-1.52,.64-1.52,1.47Z" fill="#fff" stroke="#002346" stroke-miterlimit="10"></path>
  <polygon points="462.31 358.3 447.71 368.1 435.78 368.1 432.88 341.65 460.23 340.49 462.31 358.3" fill="#fff" stroke="#002346" stroke-miterlimit="10"></polygon>
  <path d="M450.71,358.54c-.05,0-.1,.03-.12,.08l-4.34,9.48h1.41s.05,0,.07-.02l14.19-9.53c.11-.07,.06-.24-.08-.24l-11.15,.23Z" fill="#e6e7e8" stroke="#002346" stroke-miterlimit="10"></path>
  <path d="M591.5,266.34l-12.68,8.5c-.42,.28-.9,.43-1.4,.43h-8.9c-1.29,0-2.37-.97-2.51-2.25l-2.37-21.52c-.16-1.45,.94-2.73,2.4-2.8l22.32-.95c1.32-.06,2.46,.92,2.61,2.23l1.63,13.96c.11,.94-.32,1.86-1.1,2.39Z" fill="#fff" stroke="#002346" stroke-miterlimit="10"></path>
  <path d="M581.16,265.71s-.08,.03-.1,.07l-4.34,9.5h1.43s.04,0,.06-.02l14.25-9.56c.09-.06,.05-.21-.07-.21l-11.23,.22Z" fill="#e6e7e8" stroke="#002346" stroke-miterlimit="10"></path>
  <path d="M638.56,271.53l-1.25,16.24c-.02,.29,.12,.56,.36,.72l13.38,8.36c.12,.08,.26,.12,.41,.12h9.62c.41,0,.75-.32,.77-.73l1.37-22.9c.03-.42-.29-.79-.72-.82l-23.12-1.7c-.42-.03-.79,.29-.83,.71Z" fill="#fff" stroke="#002346" stroke-miterlimit="10"></path>
  <path d="M637.81,288.23h9.28c.74,0,1.4,.47,1.63,1.17l2.38,7.15c.05,.14-.11,.26-.23,.18l-13.15-8.22c-.13-.08-.07-.29,.08-.29Z" fill="#e6e7e8" stroke="#002346" stroke-miterlimit="10"></path>
  <path d="M695.48,359.63l-37.16-26.64c-4.65-3.33-8.43-7.75-11-12.86l-2.14-4.27c-.98-1.95-.66-4.29,.8-5.91h0c1.96-2.17,5.3-2.34,7.47-.38,.25,.22,.47,.47,.67,.73,1.36,1.87,2.95,3.55,4.74,5,1.12,.79,2.66,.52,3.44-.6,.36-.51,.51-1.14,.43-1.75-.25-2.2,.1-5,3.68-4.7,.21,.02,.39,.16,.48,.35l3.41,7.43c.22,.48,.35,1.01,.38,1.54l.53,8.5,27.88,15.13-3.61,18.43Z" fill="#f1b2c0" stroke="#002346" stroke-miterlimit="10"></path>
  <path d="M301.14,418.14h-44.93c-2.06,0-3.73,1.67-3.74,3.73v1.41h47.3l1.37-5.14Z" fill="#e6e7e8" stroke="#002346" stroke-miterlimit="10"></path>
  <path d="M375.11,423.18l12.26-49.52c.74-2.99-1.08-6.01-4.07-6.75-.44-.11-.88-.16-1.33-.16h-62.16c-3.09,0-5.8,2.08-6.59,5.07l-13.45,51.46,75.34-.1Z" fill="#e6e7e8" stroke="#002346" stroke-miterlimit="10"></path>
  <path d="M304.98,423.28l12.69-50.35s1.27-6.18,5.44-6.18h58.86s6.9,.85,5.4,6.91l-12.26,49.52-70.13,.1Z" fill="#fff" stroke="#002346" stroke-miterlimit="10"></path>
  <path d="M569.67,292.55l-2.17,20.58c-.05,.45,.31,.85,.76,.85h20.06c.37,0,.68-.25,.75-.61,.57-2.87,2.94-15.16,2.81-22.04,0-.43-.38-.77-.82-.74l-20.68,1.27c-.37,.02-.68,.31-.72,.69Z" fill="#fff" stroke="#002346" stroke-miterlimit="10"></path>
  <path d="M622.38,415.98h35.92c2,0,3.61,1.62,3.61,3.62h0c0,1.99-1.62,3.61-3.61,3.61-.02,0-.05,0-.07,0h-33.75l-2.1-7.23Z" fill="#e1cd84" stroke="#002346" stroke-miterlimit="10"></path>
  <path d="M768.58,388.97l-.74,3.07s-10.99,.3-13.61,4.92c-.62,1.09-.25,2.49,.84,3.12,3.68,2.16,13.81,7.29,19.68,2.44,0,0,19.3-13.59,26.28-17.47,0,0-2-12.68-8.54-12.22l-17.74,14-2.92-.2c-1.51-.11-2.87,.87-3.24,2.34Z" fill="#f1b2c0" stroke="#002346" stroke-miterlimit="10"></path>
  <rect x="150.2" y="308.45" width="31" height="46" rx="15.5" ry="15.5" fill="#f1b2c0" stroke="#002346" stroke-miterlimit="10"></rect>
  <path d="M137.99,340.42l-5.24-13s-3.69-15.72,11.84-25c0,0,14.74-6.6,22.89-1.94l8.73,11.25-38.22,28.69Z" fill="#e1cd84" stroke="#002346" stroke-miterlimit="10"></path>
  <path d="M191.11,303.01h0c.64,.79,.51,1.95-.29,2.59-.03,.02-.06,.04-.08,.06l-35.09,25.26c-.07-1.06-.49-2.07-1.2-2.86l34.13-25.38c.8-.58,1.91-.43,2.53,.33Z" fill="#fff" stroke="#002346" stroke-miterlimit="10"></path>
  <ellipse cx="151.28" cy="331.98" rx="4.37" ry="5.72" fill="#f1b2c0" stroke="#002346" stroke-miterlimit="10"></ellipse>
  <rect x="742.83" y="260.8" width="30.66" height="47.41" rx="15.33" ry="15.33" fill="#f1b2c0" stroke="#002346" stroke-miterlimit="10"></rect>
  <g>
    <ellipse cx="779.05" cy="255.09" rx="9.64" ry="9.48" transform="translate(440.57 1001.69) rotate(-83.74)" fill="#002346" stroke="#002346" stroke-miterlimit="10"></ellipse>
    <ellipse cx="772.87" cy="260.34" rx="7.42" ry="7.29" transform="translate(429.84 1000.23) rotate(-83.74)" fill="#7d74f6" stroke="#002346" stroke-miterlimit="10"></ellipse>
    <path d="M749.06,270.26c1.85,1.86,5.93,4.84,14.02,6.37,0,0-.97,5.19,4.93,10.49,1.71,1.54,2.86,3.65,3.12,5.97,.41,3.68,1.43,10.36-5.14,13.99,0,0,3.76,1.26,9.71-.06,0,0,3.19,4.05,9.17,4.4,2.46,.15,4.86-1.12,6.06-3.31,1.6-2.92,2.73-8.32,.18-18.09,0,0-4.98-33.98-24.09-36.08,0,0-8.65-2.36-16.61,.9-8.02,3.29-13.11,12.57-8.04,22.7l1.16-1.68c1.28-2.2,1.53-2.64,2.34-4.86,.08-.22,.2-.43,.35-.61h0c.74-.88,2.03-.95,2.83-.14Z" fill="#002346" stroke="#002346" stroke-miterlimit="10"></path>
  </g>
  <ellipse cx="776.02" cy="285.76" rx="3.98" ry="5.68" fill="#f1b2c0" stroke="#002346" stroke-miterlimit="10"></ellipse>
  <path d="M756.22,394.94s5.33,1.7,10.9,.85" fill="none" stroke="#002346" stroke-linecap="round" stroke-linejoin="round"></path>
  <path d="M754.22,396.96s5.33,3.02,12.91,2" fill="none" stroke="#002346" stroke-linecap="round" stroke-linejoin="round"></path>
  <path d="M756.22,400.74s7.33,1.6,10.9,1.4" fill="none" stroke="#002346" stroke-linecap="round" stroke-linejoin="round"></path>
  <path d="M758.97,532.43l-6.61-39.86c-.53-3.2-.67-6.45-.42-9.68l3.33-43.32" fill="none" stroke="#002346" stroke-linecap="round" stroke-linejoin="round"></path>
  <path d="M722.26,377.25s2.94-16.8,5.94-29.8" fill="none" stroke="#002346" stroke-linecap="round" stroke-linejoin="round"></path>
  <path d="M645.98,309.95s3.62,7.54,8.17,12.27" fill="none" stroke="#002346" stroke-linecap="round" stroke-linejoin="round"></path>
  <path d="M648.98,308.95s3.62,7.54,8.17,12.27" fill="none" stroke="#002346" stroke-linecap="round" stroke-linejoin="round"></path>
  <path d="M552.68,423.21l-13.44-50.56c-.65-2.52,.87-5.1,3.39-5.75,.39-.1,.79-.15,1.19-.15h63.49c2.2,0,4.11,1.52,4.6,3.66l12.57,52.8h-71.8Z" fill="#7d74f6" stroke="#002346" stroke-miterlimit="10"></path>
  <rect x="297.2" y="266.45" width="26" height="40" rx="13" ry="13" fill="#f1b2c0" stroke="#002346" stroke-miterlimit="10"></rect>
  <g>
    <ellipse cx="291.2" cy="260.03" rx="8.13" ry="8.27" transform="translate(-26.61 33.29) rotate(-6.26)" fill="#002346" stroke="#002346" stroke-miterlimit="10"></ellipse>
    <ellipse cx="296.49" cy="264.54" rx="6.25" ry="6.36" transform="translate(-27.07 33.89) rotate(-6.26)" fill="#e1cd84" stroke="#002346" stroke-miterlimit="10"></ellipse>
    <path d="M316.91,273.04c-1.59,1.6-5.09,4.15-12.02,5.46,0,0,.83,4.45-4.23,8.99-1.47,1.32-2.45,3.13-2.67,5.12-.35,3.15-1.22,8.88,4.41,11.99,0,0-3.23,1.08-8.32-.05,0,0-2.74,3.47-7.86,3.77-2.11,.12-4.16-.96-5.2-2.83-1.37-2.5-2.34-7.14-.15-15.51,0,0,4.27-29.13,20.65-30.93,0,0,7.42-2.02,14.24,.77,6.88,2.82,11.24,10.78,6.89,19.46l-1-1.44c-1.1-1.89-1.31-2.26-2.01-4.16-.07-.19-.17-.37-.3-.52h0c-.64-.75-1.74-.81-2.43-.12Z" fill="#002346" stroke="#002346" stroke-miterlimit="10"></path>
  </g>
  <ellipse cx="296.89" cy="287.74" rx="3.32" ry="4.25" fill="#f1b2c0" stroke="#002346" stroke-miterlimit="10"></ellipse>
  <line x1="245.36" y1="366.77" x2="263.14" y2="366.75" fill="none" stroke="#002346" stroke-linecap="round" stroke-linejoin="round"></line>
  <polygon points="240.7 541.95 260.64 541.88 251.86 580.41 241.09 580.41 240.7 541.95" fill="#e1cd84" stroke="#002346" stroke-miterlimit="10"></polygon>
  <line x1="291.19" y1="405.56" x2="299.81" y2="337.26" fill="none" stroke="#002346" stroke-linecap="round" stroke-linejoin="round"></line>
  <path d="M123.74,351.51c5.83-2.78,12.72,.77,13.95,7.11,.89,4.6,1.64,9.13,1.89,10.67,.51,3.14,.59,6.34,.24,9.5l-2.53,24.38c-.04,.38,.26,.7,.64,.71,2.83,.07,4.71,3.65,5.24,4.78,.1,.22,.31,.35,.54,.37l25.52,1.72c.29,7.85-5,16.29-5,16.29h-32.14c-5.3,0-10.02-3.35-11.77-8.35l-14.97-34.66c-2.75-6.36-1.94-13.73,2.23-19.28,3.44-4.57,8.62-9.67,16.17-13.26Z" fill="#7d74f6" stroke="#002346" stroke-miterlimit="10"></path>
  <line x1="160.18" y1="410.16" x2="162.11" y2="378.3" fill="none" stroke="#002346" stroke-linecap="round" stroke-linejoin="round"></line>
  <rect x="252.7" y="437.95" width="10" height="154" fill="#fff" stroke="#002346" stroke-miterlimit="10"></rect>
  <rect x="586.7" y="437.95" width="10" height="154" fill="#fff" stroke="#002346" stroke-miterlimit="10"></rect>
  <rect x="175.63" y="423.28" width="499.47" height="7.57" fill="#fff" stroke="#002346" stroke-miterlimit="10"></rect>
  <rect x="220.75" y="430.85" width="409.24" height="7.57" fill="#e6e7e8" stroke="#002346" stroke-miterlimit="10"></rect>
  <path d="M417.83,339.97s43.56-32.48,58.47,0c0,0,14.56,23.8-22.01,37.39,0,0-30.84,8.06-37.71-14.18,0,0-7.22-29.09,33.96-42.16" fill="none" stroke="#002346" stroke-linecap="round" stroke-linejoin="round"></path>
  <line x1="600.98" y1="260.38" x2="729.83" y2="260.38" fill="none" stroke="#002346" stroke-linecap="round" stroke-linejoin="round"></line>
  <line x1="619.4" y1="261.17" x2="619.4" y2="337.12" fill="none" stroke="#002346" stroke-linecap="round" stroke-linejoin="round"></line>
  <line x1="607.2" y1="300.44" x2="630.48" y2="300.44" fill="none" stroke="#002346" stroke-linecap="round" stroke-linejoin="round"></line>
  <g>
    <circle cx="222.7" cy="147.95" r="57" fill="#e5e6e7" stroke="#002346" stroke-miterlimit="10"></circle>
    <circle cx="222.7" cy="147.95" r="49" fill="#fff" stroke="#002346" stroke-miterlimit="10"></circle>
    <polyline points="218.7 123.95 218.7 155.95 242.7 155.95" fill="none" stroke="#002346" stroke-linecap="round" stroke-linejoin="round"></polyline>
  </g>
  <g>
    <path d="M527.85,485.3c.83-4.01,4.1-7.08,8.15-8.13,5.73-1.48,15.14-1.27,22.83,11.6,0,0,7.18,11.38,2.98,27.87,0,0-.86-8.38-14.4-14.37-1.49-.66-3.04-1.2-4.61-1.68-4.23-1.28-16.89-5.93-14.95-15.3Z" fill="#7cd194" stroke="#002346" stroke-miterlimit="10"></path>
    <path d="M576.37,471.29c-1.83,.34-3.51,1.28-4.63,2.74-2.18,2.84-3.82,8.8,1.77,20.74,0,0,8.26,17.03-5.24,37.36,0,0,21.78-9.49,27.28-29.59,1.9-6.95,1.35-14.38-1.71-20.92-2.77-5.92-7.99-12.1-17.47-10.33Z" fill="#7cd194" stroke="#002346" stroke-miterlimit="10"></path>
    <path d="M564.18,559.36s-10.56-15.23,7.67-30.63c.41-.35,.83-.67,1.26-1,3.44-2.66,24.18-20.18,9.9-44.7" fill="none" stroke="#002346" stroke-linecap="round" stroke-linejoin="round"></path>
    <path d="M548.93,489.02s19.29,12.47,10.92,34.51c0,0-9.31,22.5,.57,35.37" fill="none" stroke="#002346" stroke-linecap="round" stroke-linejoin="round"></path>
    <path d="M523.53,524.37c.02-2.54,1.65-4.79,3.99-5.89,3.31-1.54,9.07-2.47,15.25,4.52,0,0,5.6,6.03,5.06,16.38,0,.05-.08,.07-.09,.02-.41-.98-2.53-5.05-10.35-6.93-.98-.24-1.99-.39-2.99-.51-2.71-.31-10.92-1.72-10.87-7.6Z" fill="#7cd194" stroke="#002346" stroke-miterlimit="10"></path>
    <path d="M581.13,536.82s13.18-10.27,27.07-.31c0,0,6.42,4.73,4.72,9.75-.68,2-2.53,3.38-4.66,3.73-2.77,.45-7.48,.32-12.55-3.85,0,0-11.26-8.44-14.58-9.32Z" fill="#7cd194" stroke="#002346" stroke-miterlimit="10"></path>
    <path d="M567.24,559.13s1.88-31.73,32.95-21.61" fill="none" stroke="#002346" stroke-linecap="round" stroke-linejoin="round"></path>
    <polygon points="575.72 591.78 546.54 591.78 544.65 558.21 577.6 558.21 575.72 591.78" fill="#fff" stroke="#002346" stroke-miterlimit="10"></polygon>
    <path d="M545.59,571.77c1.91-.9,4.77-1.91,8.24-1.84,3.38,.07,5.51,1.14,7.77,1.84,3.25,1.01,8.13,1.7,15.06,0" fill="none" stroke="#002346" stroke-linecap="round" stroke-linejoin="round"></path>
    <path d="M545.59,575.91c1.91-.9,4.77-1.91,8.24-1.84,3.38,.07,5.51,1.14,7.77,1.84,3.25,1.01,8.13,1.7,15.06,0" fill="none" stroke="#002346" stroke-linecap="round" stroke-linejoin="round"></path>
    <path d="M536.65,526.02s12.71,5.06,16,32.19" fill="none" stroke="#002346" stroke-linecap="round" stroke-linejoin="round"></path>
  </g>
</svg>
