<svg xmlns="http://www.w3.org/2000/svg" 
xmlns:xlink="http://www.w3.org/1999/xlink" 
xml:space="preserve"
  style="shape-rendering:geometricPrecision;text-rendering:geometricPrecision;image-rendering:optimizeQuality;"
  viewBox="0 0 7 7" 
  x="0px" 
  y="0px" 
  width="120px"
  height="120px"
  
  fill-rule="evenodd" 
  clip-rule="evenodd">
  <defs>
    <style type="text/css">
      .fil1 {
        fill: white;
      }

      .fil0 {
        fill: black;
      }
    </style>
  </defs>
  <g>
    <g class="fil1">
      <path class="fil0"
        d="M5.65241 6.20798l-4.10749 0c-0.0388583,0 -0.0701732,-0.0314252 -0.0701732,-0.0701535 1.5748e-005,-0.0387441 0.0312992,-0.0701575 0.0701535,-0.0701575l4.10751 -3.93701e-006c0.0691693,0 0.125315,-0.0557835 0.125315,-0.124358l7.87402e-006 -5.05997c0,-0.0685945 -0.0561575,-0.124386 -0.125343,-0.124386l-4.10747 -3.93701e-006c-0.0388583,0 -0.0701732,-0.0314094 -0.0701732,-0.0701535 1.5748e-005,-0.0387559 0.0312992,-0.0701575 0.0701535,-0.0701575l4.10751 -3.93701e-006c0.146508,0 0.26563,0.118748 0.26563,0.264713l7.87402e-006 5.05995c0,0.145917 -0.11913,0.264685 -0.265638,0.264681z" />
      <path class="fil0"
        d="M1.9264 5.75634l3.54001 0 0 -4.68603 -3.54001 0 0 4.68603zm3.61017 0.140315l-3.68033 0c-0.038752,0 -0.0701732,-0.0314252 -0.0701732,-0.0701535l1.5748e-005 -4.82635c0,-0.0387362 0.0314016,-0.0701457 0.0701378,-0.0701457l3.68035 -1.1811e-005c0.0387205,0 0.0701496,0.0314252 0.0701496,0.0701693l7.87402e-006 4.82633c0,0.0387205 -0.031437,0.0701614 -0.0701575,0.0701575z" />
      <path class="fil0"
        d="M4.57215 1.6775l-1.53529 0c-0.038752,0 -0.0701772,-0.0314016 -0.0701772,-0.0701496 1.9685e-005,-0.038748 0.0314252,-0.0701575 0.0701614,-0.0701575l1.53531 -7.87402e-006c0.0387244,0 0.0701457,0.0314213 0.0701457,0.0701654 1.1811e-005,0.0387402 -0.0314252,0.0701575 -0.0701457,0.0701496z" />
      <path class="fil0"
        d="M5.04791 2.65074l-2.48669 0c-0.0388622,0 -0.0701654,-0.0313898 -0.0701654,-0.0701339 7.87402e-006,-0.0387598 0.0313031,-0.0701575 0.0701535,-0.0701575l2.4867 -7.87402e-006c0.0387244,0 0.0700197,0.0314055 0.0700197,0.0701654 2.75591e-005,0.0387441 -0.0312992,0.0701417 -0.0700197,0.0701339z" />
      <path class="fil0"
        d="M5.04791 3.34259l-2.48669 0c-0.0388622,0 -0.0701654,-0.0314094 -0.0701654,-0.0701535 7.87402e-006,-0.038752 0.0313031,-0.0701417 0.0701535,-0.0701417l2.4867 -3.93701e-006c0.0387244,0 0.0700197,0.0314055 0.0700197,0.0701457 2.75591e-005,0.0387362 -0.0312992,0.0701575 -0.0700197,0.0701535z" />
      <path class="fil0"
        d="M5.04791 4.03444l-2.48669 0c-0.0388622,0 -0.0701654,-0.0313976 -0.0701654,-0.0701417 7.87402e-006,-0.038748 0.0313031,-0.0701575 0.0701535,-0.0701575l2.4867 -1.5748e-005c0.0387244,0 0.0700197,0.0314291 0.0700197,0.0701732 2.75591e-005,0.0387362 -0.0312992,0.0701575 -0.0700197,0.0701417z" />
      <path class="fil0"
        d="M4.30673 4.59066c-0.125189,0 -0.385984,0 -0.429224,0.0716457 -0.0172874,0.0285866 -0.00401575,0.0876654 0.0372677,0.166354 0.0300984,0.0572756 0.076126,0.106732 0.130209,0.149067 0.0110984,-0.0112874 0.0221693,-0.0227362 0.0332559,-0.034311 0.225835,-0.235488 0.255169,-0.325827 0.258701,-0.349894 -0.00560236,-0.00137008 -0.0151024,-0.0028622 -0.0302087,-0.0028622zm-0.475618 0.756791c-0.0194843,0 -0.0389921,-0.0080315 -0.052878,-0.0239921 -0.0254449,-0.0291181 -0.0225276,-0.0734409 0.00657874,-0.098937 0.0011063,-0.000885827 0.0705236,-0.0618622 0.160169,-0.147988 -0.0628425,-0.0513543 -0.117169,-0.111799 -0.154441,-0.182618 -0.0678465,-0.129276 -0.078685,-0.228748 -0.0331378,-0.304181 0.0778465,-0.128894 0.294882,-0.139382 0.549327,-0.139382 0.106717,-7.87402e-006 0.147138,0.0481142 0.162362,0.0884921 0.026185,0.0699016 0.0136417,0.182776 -0.278433,0.490031 -0.00851181,0.00889764 -0.0169331,0.0177323 -0.0254646,0.0264764 0.184177,0.0990827 0.391354,0.139366 0.407303,0.14235 0.0288937,0.00414567 0.0401969,-0.000295276 0.0416575,-0.00172047 0.0183937,-0.0182087 0.00365354,-0.122898 -0.00414173,-0.179142 -0.0142441,-0.101992 -0.0291063,-0.207429 0.00792126,-0.289472 0.0269173,-0.061689 0.0975591,-0.086811 0.176,-0.0625354 0.121823,0.037626 0.229224,0.169854 0.198295,0.325992 -0.00741339,0.0380039 -0.0442205,0.0627756 -0.0824606,0.055185 -0.038,-0.00755118 -0.0627323,-0.0444449 -0.0551811,-0.0824567 0.0123307,-0.0616969 -0.0203386,-0.105429 -0.0409213,-0.12602 -0.0274016,-0.0274409 -0.0565157,-0.0388504 -0.0718622,-0.0413228 -0.0143504,0.0474921 -0.00304331,0.128787 0.00718504,0.201177 0.0165827,0.118547 0.0321575,0.230583 -0.0360551,0.298181 -0.0376339,0.0373858 -0.0923228,0.0511535 -0.162114,0.0408031 -0.000732283,-0.000125984 -0.00146457,-0.000244094 -0.00206693,-0.000366142 -0.0158189,-0.00280315 -0.267232,-0.0493268 -0.485988,-0.178094 -0.100465,0.0977047 -0.180878,0.168106 -0.185504,0.172248 -0.0132638,0.011563 -0.0298425,0.0172953 -0.0461496,0.0172913z" />
      <path class="fil0"
        d="M1.26185 0.489949c-0.0856417,0 -0.212921,0.0345551 -0.212921,0.129732l7.87402e-006 5.58732c0,0.095126 0.127268,0.12972 0.212902,0.12972 0.0855157,-1.1811e-005 0.212906,-0.0345906 0.212906,-0.12972l1.5748e-005 -5.58733c0,-0.0951772 -0.127417,-0.129717 -0.212909,-0.12972zm0 5.98707c-0.175531,0 -0.353236,-0.0927992 -0.353236,-0.270024l7.87402e-006 -5.58733c0,-0.177283 0.177697,-0.270031 0.353217,-0.270031 0.175512,-3.93701e-006 0.35322,0.0927598 0.35322,0.270043l1.5748e-005 5.58732c0,0.177217 -0.177728,0.270035 -0.353224,0.270024z" />
    </g>
  </g>
</svg>