<svg xmlns="http://www.w3.org/2000/svg" xmlns:xlink="http://www.w3.org/1999/xlink" version="1.1" x="0px" y="0px"
    viewBox="0 0 100 100" style="enable-background:new 0 0 100 100;" xml:space="preserve">
    <g fill="white">
        <path
            d="M74.65,51.38c-1.1,0-2,0.9-2,2v22.29c0,1.08-0.88,1.95-1.95,1.95h-9.57V60.77c0-1.1-0.9-2-2-2H43.23c-1.1,0-2,0.9-2,2   v16.85H31.1c-1.08,0-1.95-0.88-1.95-1.95V53.38c0-1.1-0.9-2-2-2s-2,0.9-2,2v22.29c0,3.28,2.67,5.95,5.95,5.95h12.13h15.89H70.7   c3.28,0,5.95-2.67,5.95-5.95V53.38C76.65,52.28,75.75,51.38,74.65,51.38z M45.23,77.62V62.77h11.89v14.85H45.23z" />
        <path
            d="M54.05,21.59c-1.08-1.08-2.52-1.68-4.05-1.68s-2.96,0.59-4.04,1.68L17.22,50.33c-0.78,0.78-0.78,2.05,0,2.83   s2.05,0.78,2.83,0l28.73-28.73c0.65-0.65,1.78-0.65,2.43,0l28.73,28.73c0.39,0.39,0.9,0.59,1.41,0.59s1.02-0.2,1.41-0.59   c0.78-0.78,0.78-2.05,0-2.83L54.05,21.59z" />
        <path
            d="M50.07,52.47c4.06,0,7.36-3.3,7.36-7.36c0-4.06-3.3-7.36-7.36-7.36s-7.36,3.3-7.36,7.36   C42.71,49.17,46.01,52.47,50.07,52.47z M50.07,41.75c1.85,0,3.36,1.51,3.36,3.36s-1.51,3.36-3.36,3.36s-3.36-1.51-3.36-3.36   S48.22,41.75,50.07,41.75z" />
    </g>
</svg>