<svg xmlns="http://www.w3.org/2000/svg" xmlns:xlink="http://www.w3.org/1999/xlink" version="1.1" x="0px" y="0px"
	viewBox="0 0 512 512" style="enable-background:new 0 0 512 512;" xml:space="preserve">
	<style type="text/css">
		.st0 {
			fill-rule: evenodd;
			clip-rule: evenodd;
		}
	</style>
	<path fill="white" class="st0"
		d="M164.48,420.116l-29.776-51.573l-92.918,53.646c-4.501,2.586-6.053,8.522-3.468,12.912l20.132,34.869  l0.001-0.001c1.584,2.375,2.868,3.893,5.934,4.715c2.239,0.6,4.681,0.402,6.838-0.723l-0.003-0.004l0.697-0.401L164.48,420.116  L164.48,420.116z M192.637,125.012c22.355,0,33.634,27.158,17.806,42.988c-3.202,3.202-7.262,5.546-11.806,6.657v72.706h17.783  l10.981-26.437l0.004,0.002c0.468-1.13,1.286-2.128,2.41-2.814c39.456-24.072,46.193-78.82,13.373-111.641  c-27.917-27.917-73.185-27.918-101.102,0c-22.57,22.57-27.53,57.568-11.826,85.521c5.994,10.668,14.639,19.641,25.04,26.023  c1.118,0.634,2.042,1.632,2.574,2.911l10.981,26.436h17.783v-72.706c-18.903-4.622-25.737-28.337-11.806-42.268  C179.389,127.831,185.685,125.012,192.637,125.012L192.637,125.012z M201.959,140.872c5.147,5.147,5.147,13.496,0,18.643  c-8.278,8.279-22.503,2.392-22.503-9.322C179.456,138.48,193.681,132.593,201.959,140.872L201.959,140.872z M378.253,227.643  c0-3.314,2.686-6,6-6c3.314,0,6,2.686,6,6v90.259h4.24c3.314,0,6,2.686,6,6c0,3.314-2.686,6-6,6H265.706c-3.314,0-6-2.686-6-6  c0-3.314,2.686-6,6-6h4.24v-26.234c0-3.314,2.686-6,6-6c3.314,0,6,2.686,6,6v26.234h20.595v-49.772c0-3.314,2.686-6,6-6  c3.314,0,6,2.686,6,6v49.772h25.239v-71.992c0-3.314,2.686-6,6-6c3.314,0,6,2.686,6,6v71.992h26.473V227.643L378.253,227.643z   M280.729,248.996c-2.602,2.032-6.358,1.57-8.391-1.031c-2.032-2.602-1.57-6.358,1.031-8.391l32.493-25.361  c2.407-1.88,5.803-1.625,7.907,0.484l0.015-0.015l10.479,10.479l37.543-23.956c2.783-1.773,6.477-0.954,8.25,1.828  c1.773,2.783,0.954,6.477-1.828,8.25l-41.145,26.254c-2.353,1.826-5.754,1.659-7.915-0.503l-10.133-10.133L280.729,248.996  L280.729,248.996z M176.801,51.07c0.854,3.197-1.045,6.482-4.242,7.336c-3.197,0.854-6.482-1.045-7.336-4.242l-5.791-21.611  c-0.854-3.197,1.045-6.482,4.242-7.336c3.197-0.854,6.482,1.045,7.336,4.242L176.801,51.07L176.801,51.07z M219.207,54.164  c-0.854,3.197-4.139,5.096-7.336,4.242c-3.197-0.854-5.096-4.139-4.242-7.336l5.791-21.611c0.854-3.197,4.139-5.096,7.336-4.242  c3.197,0.854,5.096,4.139,4.242,7.336L219.207,54.164L219.207,54.164z M253.749,67.518c-1.657,2.86-5.319,3.836-8.18,2.18  c-2.86-1.657-3.836-5.319-2.18-8.18l11.187-19.376c1.657-2.86,5.319-3.836,8.18-2.18c2.86,1.657,3.836,5.319,2.18,8.18  L253.749,67.518L253.749,67.518z M138.753,61.518c1.657,2.861,0.681,6.523-2.18,8.18c-2.86,1.657-6.523,0.681-8.18-2.18  l-11.187-19.376c-1.657-2.86-0.681-6.523,2.18-8.18c2.86-1.656,6.523-0.681,8.18,2.18L138.753,61.518L138.753,61.518z   M284.474,97.292c-2.86,1.644-6.513,0.657-8.156-2.203c-1.644-2.861-0.657-6.513,2.203-8.156l19.376-11.187  c2.86-1.644,6.513-0.657,8.156,2.203c1.644,2.86,0.657,6.513-2.203,8.156L284.474,97.292L284.474,97.292z M106.777,86.932  c2.86,1.657,3.836,5.319,2.18,8.18c-1.657,2.861-5.319,3.836-8.18,2.18L81.401,86.105c-2.86-1.657-3.836-5.319-2.18-8.18  c1.656-2.861,5.319-3.837,8.18-2.18L106.777,86.932L106.777,86.932z M147.467,274.597h90.34v-8.066c0-3.931-3.237-7.168-7.168-7.168  h-76.003c-3.931,0-7.169,3.237-7.169,7.168V274.597L147.467,274.597z M237.807,286.597h-90.34v8.066  c0,3.931,3.238,7.169,7.169,7.169h76.003c3.93,0,7.168-3.237,7.168-7.169V286.597L237.807,286.597z M154.636,247.362h1.247  l-8.343-20.085c-11.481-7.383-21.033-17.499-27.734-29.426c-18.364-32.687-12.562-73.507,13.795-99.864  c32.606-32.606,85.465-32.605,118.07,0c9.428,9.427,16.611,21.099,20.68,34.145c72.395-27.551,154.424,1.474,193.333,68.867  c43.726,75.736,17.797,172.553-57.944,216.293c-63.426,36.629-143.935,25.017-194.279-28.359l-39.872,23.02l4.246,7.354  c1.657,2.861,0.681,6.523-2.18,8.18L77.896,483.93l-0.018,0.012l-0.001-0.001l-0.327,0.188l-0.006-0.01  c-5.005,2.972-11.048,3.538-16.252,2.144c-5.644-1.512-9.469-4.602-12.825-9.636l0.005-0.003l-0.192-0.326l-20.323-35.199  c-2.901-5.392-3.627-10.682-2.133-16.258c1.363-5.089,4.988-10.335,9.964-13.013l98.107-56.642c2.861-1.657,6.523-0.681,8.18,2.18  l4.813,8.336l36.928-21.321c-1.036-2.33-2.016-4.686-2.939-7.065c-5.719,0-10.183,0.263-14.888-4.442  c-2.74-2.74-4.442-6.526-4.442-10.694v-8.348c-7.887,0-14.128,0.7-20.455-5.626c-3.472-3.471-5.626-8.265-5.626-13.542V266.53  C135.467,255.976,144.081,247.362,154.636,247.362L154.636,247.362z M229.391,247.362l8.343-20.086  c11.481-7.384,21.033-17.499,27.734-29.425c1.135-2.02,2.188-4.092,3.155-6.21c12.384-8.374,26.505-14.144,41.447-16.777  c44.157-7.783,88.677,13.055,111.085,51.865l0.01-0.006c29.498,51.114,11.973,116.522-39.152,146.039l0.006,0.01  c-58.729,33.892-133.594,5.216-154.929-58.939h3.55c10.554,0,19.168-8.615,19.168-19.169V266.53c0-5.277-2.155-10.071-5.626-13.542  C240.013,248.819,235.375,247.362,229.391,247.362L229.391,247.362z M211.726,313.832h-38.178v8.348  c0,1.713,1.423,3.136,3.136,3.136h31.906c1.713,0,3.136-1.422,3.136-3.136V313.832L211.726,313.832z M275.103,143.923  c67.214-26.439,143.954,0.256,180.223,63.075c40.402,69.979,16.456,159.492-53.584,199.934  c-76.279,44.044-173.595,11.189-207.919-69.617h14.768c5.076,0,9.651-2.531,12.421-6.502c14.776,31.333,42.493,55.005,76.79,64.194  c31.321,8.392,64.325,3.376,90.205-11.897l0.006,0.01c26.348-15.212,46.893-40.474,55.389-72.181  c8.299-31.819,3.516-63.802-11.887-90.188l-0.01-0.017l0.01-0.006c-31.745-54.984-101.023-75.195-157.203-46.322  C276.426,164.433,276.699,154.045,275.103,143.923L275.103,143.923z M189.1,355.155c4.669,8.678,10.144,16.92,16.354,24.606  l-37.836,21.844l-14.743-25.536L189.1,355.155z" />
	
</svg>