<svg xmlns="http://www.w3.org/2000/svg" xmlns:xlink="http://www.w3.org/1999/xlink" version="1.1" x="0px" y="0px"
    viewBox="0 0 100 100" style="enable-background:new 0 0 100 100;" xml:space="preserve">
    <path fill="white"
        d="M68.75,71.02c6.65-5.57,10.46-13.74,10.46-22.4c0-16.11-13.1-29.21-29.21-29.21s-29.21,13.1-29.21,29.21  c0,8.66,3.81,16.82,10.46,22.4c0.88,0.74,1.55,1.58,2.01,2.52c-1.65,0.75-2.81,2.42-2.81,4.36c0,1.25,0.48,2.39,1.27,3.24  c-0.79,0.85-1.27,1.99-1.27,3.24c0,2.57,2.03,4.67,4.57,4.78c1.05,2.81,2.91,5.31,5.33,7.12c2.8,2.1,6.17,3.21,9.72,3.21  c6.62,0,12.58-4.2,14.88-10.34c2.54-0.11,4.58-2.21,4.58-4.78c0-1.25-0.48-2.39-1.27-3.24c0.79-0.85,1.27-1.99,1.27-3.24  c0-1.93-1.15-3.6-2.81-4.36C67.2,72.6,67.87,71.75,68.75,71.02z M38.67,48.62c0,1.18-0.96,2.14-2.14,2.14  c-1.18,0-2.14-0.96-2.14-2.14c0-1.18,0.96-2.14,2.14-2.14C37.71,46.48,38.67,47.44,38.67,48.62z M41.16,46.18l6.4-6.4  c0.73,0.39,1.56,0.61,2.44,0.61c0.88,0,1.71-0.22,2.44-0.61l6.4,6.4c-0.39,0.73-0.61,1.56-0.61,2.44c0,0.88,0.22,1.71,0.61,2.44  L50,59.91l-8.84-8.84c0.39-0.73,0.61-1.56,0.61-2.44C41.76,47.74,41.54,46.91,41.16,46.18z M50,37.29c-1.18,0-2.14-0.96-2.14-2.14  c0-1.18,0.96-2.14,2.14-2.14s2.14,0.96,2.14,2.14C52.14,36.33,51.18,37.29,50,37.29z M61.33,48.62c0-1.18,0.96-2.14,2.14-2.14  s2.14,0.96,2.14,2.14c0,1.18-0.96,2.14-2.14,2.14S61.33,49.8,61.33,48.62z M64.76,76.2c0.93,0,1.69,0.76,1.69,1.69  c0,0.93-0.76,1.69-1.69,1.69H35.24c-0.93,0-1.69-0.76-1.69-1.69c0-0.93,0.76-1.69,1.69-1.69h0.06c0,0,0.01,0,0.01,0c0,0,0,0,0.01,0  H64.76z M50.08,96.41c-5.04,0-9.58-2.89-11.69-7.24H61.6C59.49,93.51,55.01,96.41,50.08,96.41z M64.76,86.07h-0.93  c-0.01,0-0.01,0-0.02,0H35.24c-0.93,0-1.69-0.76-1.69-1.69c0-0.94,0.76-1.7,1.69-1.7h29.51c0.93,0,1.69,0.76,1.69,1.7  C66.45,85.31,65.69,86.07,64.76,86.07z M63.55,73.11H51.55V62.73l9.48-9.48c0.73,0.39,1.56,0.61,2.44,0.61  c2.89,0,5.23-2.35,5.23-5.23c0-2.89-2.35-5.23-5.23-5.23c-0.88,0-1.71,0.22-2.44,0.61l-6.4-6.4c0.39-0.73,0.61-1.56,0.61-2.44  c0-2.89-2.35-5.23-5.23-5.23s-5.23,2.35-5.23,5.23c0,0.88,0.22,1.71,0.61,2.44l-6.4,6.4c-0.73-0.39-1.56-0.61-2.44-0.61  c-2.89,0-5.23,2.35-5.23,5.23c0,2.89,2.35,5.23,5.23,5.23c0.88,0,1.71-0.22,2.44-0.61l9.48,9.48v10.38H36.45  c-0.64-1.71-1.71-3.21-3.21-4.46c-5.95-4.98-9.36-12.28-9.36-20.03C23.88,34.22,35.6,22.5,50,22.5s26.12,11.72,26.12,26.12  c0,7.74-3.41,15.04-9.36,20.03C65.27,69.9,64.19,71.4,63.55,73.11z M48.45,13.11V2.05c0-0.85,0.69-1.55,1.55-1.55  s1.55,0.69,1.55,1.55v11.07c0,0.85-0.69,1.55-1.55,1.55S48.45,13.97,48.45,13.11z M74.94,24.99c-0.6-0.6-0.6-1.58,0-2.19l7.83-7.83  c0.6-0.6,1.58-0.6,2.19,0c0.6,0.6,0.6,1.58,0,2.19l-7.83,7.83c-0.3,0.3-0.7,0.45-1.09,0.45S75.24,25.29,74.94,24.99z M99.42,49.93  c0,0.85-0.69,1.55-1.55,1.55H86.81c-0.85,0-1.55-0.69-1.55-1.55s0.69-1.55,1.55-1.55h11.07C98.73,48.38,99.42,49.07,99.42,49.93z   M84.95,82.69c0.6,0.6,0.6,1.58,0,2.19c-0.3,0.3-0.7,0.45-1.09,0.45s-0.79-0.15-1.09-0.45l-7.83-7.83c-0.6-0.6-0.6-1.58,0-2.19  c0.6-0.6,1.58-0.6,2.19,0L84.95,82.69z M15.05,17.16c-0.6-0.6-0.6-1.58,0-2.19c0.6-0.6,1.58-0.6,2.19,0l7.83,7.83  c0.6,0.6,0.6,1.58,0,2.19c-0.3,0.3-0.7,0.45-1.09,0.45c-0.4,0-0.79-0.15-1.09-0.45L15.05,17.16z M14.73,49.93  c0,0.85-0.69,1.55-1.55,1.55H2.12c-0.85,0-1.55-0.69-1.55-1.55s0.69-1.55,1.55-1.55h11.07C14.04,48.38,14.73,49.07,14.73,49.93z   M25.06,74.86c0.6,0.6,0.6,1.58,0,2.19l-7.83,7.83c-0.3,0.3-0.7,0.45-1.09,0.45c-0.4,0-0.79-0.15-1.09-0.45  c-0.6-0.6-0.6-1.58,0-2.19l7.83-7.83C23.48,74.26,24.46,74.26,25.06,74.86z" />
    
</svg>