<svg xmlns="http://www.w3.org/2000/svg" xmlns:xlink="http://www.w3.org/1999/xlink" version="1.1" x="0px" y="0px"
    viewBox="0 0 64 80" enable-background="new 0 0 64 64" xml:space="preserve">
    <g fill="red" opacity="0.6">
        <path
            d="M49.6,22.7c0.4-0.6,0.6-1.3,0.6-2.1c0-0.9-0.3-1.7-0.9-2.4c0.5-0.7,0.9-1.5,0.9-2.5c0-2.2-1.8-3.9-3.9-3.9h-1.6l5.3-9.6   c0.3-0.5,0.2-1,0-1.5C49.6,0.3,49.2,0,48.6,0h-8.5c-0.6,0-1.2,0.4-1.4,0.9l-1.3,3.1L36.2,1C35.9,0.4,35.4,0,34.8,0h-8.5   c-0.5,0-1,0.3-1.3,0.7c-0.3,0.5-0.3,1,0,1.5l5.3,9.6H28c-2.2,0-3.9,1.8-3.9,4c0,0.9,0.3,1.7,0.9,2.4c-0.5,0.7-0.9,1.5-0.9,2.5   c0,0.7,0.2,1.4,0.6,2c-1.3,0.7-2.5,1.5-3.7,2.4c-0.2-0.6-0.7-1.1-1.4-1.1H9c-0.8,0-1.5,0.7-1.5,1.5V45H4c-0.6,0-1.1,0.3-1.4,0.9   c-0.2,0.5-0.2,1.2,0.2,1.6l10.2,11.8c0.3,0.3,0.7,0.5,1.1,0.5s0.8-0.2,1.1-0.5l2.9-3.3C22.9,61,29.8,64,37.1,64   c13.4,0,24.4-10,24.4-22.2C61.5,34,56.8,26.7,49.6,22.7z M28,21.6c-0.5,0-0.9-0.4-0.9-1c0-0.5,0.4-0.9,0.9-0.9h18.2   c0.5,0,0.9,0.4,0.9,1c0,0.5-0.4,0.9-0.9,0.9H28z M41.1,3h5l-4.9,8.8h-0.6L39,8.1L41.1,3z M28.8,3h5L36,8.6c0,0,0,0,0,0l1.3,3.2   h-3.7L28.8,3z M28,14.9h18.2c0.5,0,0.9,0.4,0.9,1c0,0.5-0.4,0.9-0.9,0.9H28c-0.5,0-0.9-0.4-0.9-1C27.1,15.3,27.5,14.9,28,14.9z    M14.3,55.9l-6.9-8H9c0.8,0,1.5-0.7,1.5-1.5V27H18v19.4c0,0.8,0.7,1.5,1.5,1.5h1.6L14.3,55.9z M37.1,61c-6.6,0-12.8-2.8-16.9-7.4   l5.3-6.1c0.4-0.4,0.5-1.1,0.2-1.6c-0.2-0.5-0.8-0.9-1.4-0.9H21V29.2c1.8-1.9,4.1-3.5,6.6-4.6c0.1,0,0.2,0,0.4,0h18.2   c0.1,0,0.2,0,0.4,0c7.2,3.2,11.9,10,11.9,17.2C58.5,52.4,48.9,61,37.1,61z" />
        <path
            d="M37.7,40.7c-0.1,0-0.2,0-0.3,0c-1,0-1.9-0.8-1.9-1.9s0.8-1.9,1.9-1.9h2.2c0.8,0,1.5-0.7,1.5-1.5s-0.7-1.5-1.5-1.5h-0.7   v-1.4c0-0.8-0.7-1.5-1.5-1.5s-1.5,0.7-1.5,1.5v1.7c-1.9,0.6-3.4,2.4-3.4,4.6c0,2.6,2,4.7,4.6,4.8c0.1,0,0.2,0,0.3,0   c1,0,1.9,0.8,1.9,1.9c0,1-0.8,1.9-1.9,1.9h-2.8c-0.8,0-1.5,0.7-1.5,1.5s0.7,1.5,1.5,1.5h1.3v1.2c0,0.8,0.7,1.5,1.5,1.5   s1.5-0.7,1.5-1.5v-1.5c1.9-0.6,3.4-2.4,3.4-4.6C42.3,42.9,40.3,40.8,37.7,40.7z" />
    </g>
</svg>