<svg xmlns="http://www.w3.org/2000/svg" data-name="Layer 1" viewBox="0 0 98 122.5" x="0px" y="0px">
    <path stroke-width="1px" stroke="green" fill="green" opacity="0.6"
        d="m95.499,61.676c0-2.175-1.769-3.944-3.944-3.944h-3.296c.145-.41.227-.849.227-1.307v-9.76c0-2.175-1.769-3.944-3.944-3.944h-1.878v-12.562h3.799c.471,0,.906-.251,1.142-.659.235-.408.236-.91,0-1.318l-9.2-15.94c-.235-.408-.67-.659-1.141-.659h0c-.471,0-.906.251-1.141.659l-9.205,15.94c-.236.408-.236.91,0,1.318.235.408.67.659,1.142.659h3.8v12.562h-7.242v-21.239h3.8c.471,0,.906-.251,1.142-.659.236-.408.236-.91,0-1.318l-9.205-15.94c-.236-.408-.67-.659-1.141-.659h0c-.471,0-.906.252-1.141.66l-9.2,15.94c-.235.408-.235.91,0,1.318.236.408.671.659,1.142.659h3.8v21.239h-1.278c-.668-1.787-2.393-3.063-4.41-3.063h-3.804c4.186-10.748,6.28-16.123,6.28-16.123.171-.438.095-.934-.199-1.302-.294-.368-.761-.551-1.226-.48-12.904,1.943-21.188,1.943-34.092,0-.463-.07-.932.113-1.226.48-.294.367-.369.863-.199,1.302,0,0,2.095,5.376,6.28,16.123h-3.803c-2.595,0-4.707,2.111-4.707,4.707,0,2.037,1.301,3.775,3.114,4.429-7.629,8.948-11.677,20.044-12.037,33.027-.095,3.273,1.687,6.176,4.651,7.575,8.052,3.799,16.512,5.699,24.972,5.699,7.689,0,15.379-1.57,22.761-4.708h36.666c2.175,0,3.944-1.769,3.944-3.944v-9.755c0-1.011-.384-1.931-1.01-2.63.626-.698,1.01-1.617,1.01-2.626v-9.755Zm-25.157-34.154l6.921-11.986,6.919,11.986h-2.835c-.728,0-1.318.59-1.318,1.318v13.88h-5.534v-13.88c0-.728-.59-1.318-1.318-1.318h-2.834Zm-18.049-8.677l6.919-11.985,6.921,11.985h-2.834c-.728,0-1.318.59-1.318,1.318v22.557h-5.534v-22.557c0-.728-.59-1.318-1.318-1.318h-2.835Zm.429,26.512h31.821c.709,0,1.307.599,1.307,1.308v9.76c0,.709-.599,1.307-1.307,1.307h-28.769c-1.674-3.181-3.694-6.164-6.06-8.939,1.511-.545,2.665-1.842,3.008-3.436ZM16.934,24.683c11.101,1.531,19.286,1.53,30.387,0-1.011,2.594-2.955,7.585-5.833,14.974h-18.722c-2.878-7.389-4.822-12.38-5.833-14.974Zm-2.87,19.681c0-1.142.929-2.071,2.07-2.071h26.247s.005,0,.008,0c.002,0,.003,0,.005,0h5.727c1.142,0,2.07.929,2.07,2.071s-.929,2.071-2.07,2.071h-31.987c-1.142,0-2.07-.929-2.07-2.071Zm41.911,42.648c-7.69,3.629-15.767,5.443-23.847,5.442-8.078,0-16.158-1.814-23.846-5.442-2.032-.96-3.206-2.872-3.141-5.117.362-13.068,4.63-24.107,12.68-32.824h28.613c8.051,8.717,12.318,19.756,12.681,32.826.065,2.244-1.109,4.156-3.141,5.115Zm36.888-.569c0,.721-.586,1.307-1.307,1.307h-32.117c1.528-1.539,2.378-3.643,2.312-5.928-.061-2.204-.229-4.353-.502-6.447h30.307c.721,0,1.307.589,1.307,1.313v9.755Zm0-15.012c0,.721-.586,1.307-1.307,1.307h-30.713c-.777-4.385-2.037-8.513-3.778-12.37h34.491c.721,0,1.307.586,1.307,1.308v9.755Zm-60.735-17.339c-9.637,0-17.477,7.84-17.477,17.477s7.84,17.482,17.477,17.482,17.477-7.843,17.477-17.482-7.84-17.477-17.477-17.477Zm0,32.323c-8.183,0-14.841-6.66-14.841-14.846s6.658-14.841,14.841-14.841,14.841,6.658,14.841,14.841-6.658,14.846-14.841,14.846Zm5.731-14.17c1.017,1.325,1.218,2.932.552,4.409-.808,1.792-2.76,3.135-4.965,3.469v2.087c0,.728-.59,1.318-1.318,1.318s-1.318-.59-1.318-1.318v-2.19c-1.828-.434-3.439-1.626-4.585-3.449-.387-.616-.201-1.43.415-1.817.616-.387,1.43-.201,1.817.415,1.405,2.236,3.252,2.458,4.228,2.39,1.45-.1,2.848-.937,3.323-1.99.227-.503.206-.983-.065-1.458-.396-.118-1.169-.289-1.814-.431-3.517-.776-6.527-1.545-7.734-3.103-.998-1.286-1.21-2.833-.58-4.243.782-1.749,2.758-3.055,4.994-3.338v-2.063c0-.728.59-1.318,1.318-1.318s1.318.59,1.318,1.318v2.219c1.855.465,3.485,1.683,4.644,3.532.387.617.2,1.43-.416,1.817-.617.387-1.43.2-1.817-.416-1.469-2.343-3.423-2.572-4.461-2.5-1.598.112-2.806,1.003-3.173,1.825-.233.522-.149,1.029.256,1.552.722.931,4.435,1.751,6.219,2.144,1.642.362,2.388.535,2.851.846.119.08.224.179.311.292Z" />

</svg>