<svg xmlns="http://www.w3.org/2000/svg" xmlns:xlink="http://www.w3.org/1999/xlink" version="1.2" baseProfile="tiny"
    x="0px" y="0px" viewBox="0 0 100 100" xml:space="preserve">
    <g fill="white">
        <path
            d="M10.6186523,13.7800293h50.6396484c1.7207031,0,3.1201172,1.3999023,3.1201172,3.1201172v0.8500977   c0,1.3808594,1.1191406,2.5,2.5,2.5s2.5-1.1191406,2.5-2.5v-0.8500977c0-4.4775391-3.6425781-8.1201172-8.1201172-8.1201172   H10.6186523c-4.4775391,0-8.1201172,3.6425781-8.1201172,8.1201172v66.199707c0,2.1425781,0.8212891,4.1533203,2.3134766,5.6591797   c0.4892578,0.4941406,1.1328125,0.7412109,1.7763672,0.7412109c0.6357422,0,1.2714844-0.2412109,1.7587891-0.7236328   c0.9814453-0.9716797,0.9892578-2.5546875,0.0175781-3.5351563c-0.5585938-0.5644531-0.8662109-1.3251953-0.8662109-2.1416016   v-66.199707C7.4985352,15.1799316,8.8979492,13.7800293,10.6186523,13.7800293z" />
        <path
            d="M94.4360352,27.5524902c-1.9677734-1.9682617-4.5878906-3.0522461-7.3779297-3.0522461   c-2.7890625,0-5.4091797,1.0839844-7.3769531,3.0522461L69.378418,37.8554077v-5.1051636c0-1.3808594-1.1191406-2.5-2.5-2.5   s-2.5,1.1191406-2.5,2.5v10.1052856L52.8110352,54.4230957c-2.0859375,2.0859375-3.5351563,4.703125-4.1894531,7.5654297   l-1.6894531,7.3310547c-0.3730469,1.6201172,0.1064453,3.2890625,1.2822266,4.4648438   c0.9130859,0.9130859,2.1240234,1.40625,3.3779297,1.40625c0.3613281,0,0.7255859-0.0410156,1.0878906-0.1240234   l7.3251953-1.6884766c1.5425415-0.3529053,3.012146-0.9454346,4.3730469-1.7394409v11.4611206   c0,1.7207031-1.3994141,3.1201172-3.1201172,3.1201172H16.2788086c-1.3808594,0-2.5,1.1191406-2.5,2.5s1.1191406,2.5,2.5,2.5   h44.9794922c4.4775391,0,8.1201172-3.6425781,8.1201172-8.1201172V67.3853149l25.0585938-25.067688   c1.9755859-1.9711914,3.0644531-4.5927734,3.0644531-7.3818359C97.5014648,32.1442871,96.4116211,29.5212402,94.4360352,27.5524902   z M64.0454102,65.6477051c-1.4335938,1.4257813-3.2158203,2.4130859-5.1582031,2.8564453l-7.0078125,1.6152344l1.6162109-7.0126953   c0.4453125-1.9482422,1.4306641-3.7285156,2.8505859-5.1484375l22.6003418-22.600769l7.6898804,7.6901855L64.0454102,65.6477051z    M90.9038086,38.7790527c-0.0009766,0.0014648-0.0019531,0.0024414-0.0039063,0.003418l-0.7290649,0.7293701l-7.689209-7.6895142   l0.7346802-0.7346802c1.0244141-1.0234375,2.3886719-1.5874023,3.8417969-1.5874023   c1.4541016,0,2.8183594,0.5639648,3.8457031,1.590332c1.0302734,1.0268555,1.5976563,2.3925781,1.5976563,3.8447266   S91.934082,37.7526855,90.9038086,38.7790527z" />
        <path
            d="M57.9428711,26.8039551c0-1.3808594-1.1191406-2.5-2.5-2.5H16.434082c-1.3808594,0-2.5,1.1191406-2.5,2.5   s1.1191406,2.5,2.5,2.5h39.0087891C56.8237305,29.3039551,57.9428711,28.1848145,57.9428711,26.8039551z" />
        <path
            d="M55.0932617,42.2658691c0-1.3808594-1.1191406-2.5-2.5-2.5H16.4311523c-1.3808594,0-2.5,1.1191406-2.5,2.5   s1.1191406,2.5,2.5,2.5h36.1621094C53.9741211,44.7658691,55.0932617,43.6467285,55.0932617,42.2658691z" />
        <path
            d="M43.2495117,57.7316895c0-1.3808594-1.1191406-2.5-2.5-2.5H16.4311523c-1.3808594,0-2.5,1.1191406-2.5,2.5   s1.1191406,2.5,2.5,2.5h24.3183594C42.1303711,60.2316895,43.2495117,59.1125488,43.2495117,57.7316895z" />
        <path
            d="M38.3422852,70.6984863H16.4311523c-1.3808594,0-2.5,1.1191406-2.5,2.5s1.1191406,2.5,2.5,2.5h21.9111328   c1.3808594,0,2.5-1.1191406,2.5-2.5S39.7231445,70.6984863,38.3422852,70.6984863z" />
        <path
            d="M65.1079102,23.4802246c-0.4599609,0.4697266-0.7294922,1.1098633-0.7294922,1.7700195   c0,0.659668,0.2695313,1.2998047,0.7294922,1.7700195c0.4707031,0.4599609,1.1103516,0.7299805,1.7705078,0.7299805   s1.2998047-0.2700195,1.7695313-0.7299805c0.4599609-0.4702148,0.7304688-1.1103516,0.7304688-1.7700195   c0-0.6601563-0.2705078-1.300293-0.7304688-1.7700195C67.7182617,22.5500488,66.0483398,22.5500488,65.1079102,23.4802246z" />
    </g>
</svg>