<svg xmlns="http://www.w3.org/2000/svg" xmlns:xlink="http://www.w3.org/1999/xlink" version="1.1" x="0px" y="0px"
    viewBox="0 0 100 125" style="enable-background:new 0 0 100 100;" xml:space="preserve">
    <g>
        <path
            d="M56.9,26.2h-3.2v-7.5c0-0.8-0.7-1.5-1.5-1.5c-0.8,0-1.5,0.7-1.5,1.5v7.5h-3.2c-1.5,0-2.8,1.3-2.8,2.8v15.4   c0,1.5,1.3,2.8,2.8,2.8h3.2v2.5c0,0.8,0.7,1.5,1.5,1.5c0.8,0,1.5-0.7,1.5-1.5v-2.5h3.2c1.5,0,2.8-1.3,2.8-2.8V29   C59.7,27.5,58.5,26.2,56.9,26.2z M56.7,44.2h-9v-15h9V44.2z" />
        <path
            d="M36.7,36.1h-3.2v-4.9c0-0.8-0.7-1.5-1.5-1.5c-0.8,0-1.5,0.7-1.5,1.5v4.9h-3.2c-1.5,0-2.8,1.3-2.8,2.8v26.5   c0,1.5,1.3,2.8,2.8,2.8h3.2v5.5c0,0.8,0.7,1.5,1.5,1.5c0.8,0,1.5-0.7,1.5-1.5v-5.5h3.2c1.5,0,2.8-1.3,2.8-2.8V38.9   C39.5,37.4,38.2,36.1,36.7,36.1z M36.5,65.2h-9V39.1h9V65.2z" />
        <path
            d="M77.2,38.3H74V14.5c0-0.8-0.7-1.5-1.5-1.5c-0.8,0-1.5,0.7-1.5,1.5v23.9h-3.2c-1.5,0-2.8,1.3-2.8,2.8v15.5   c0,1.5,1.3,2.8,2.8,2.8H71V63c0,0.8,0.7,1.5,1.5,1.5c0.8,0,1.5-0.7,1.5-1.5v-3.5h3.2c1.5,0,2.8-1.3,2.8-2.8V41.2   C80,39.6,78.7,38.3,77.2,38.3z M77,56.5h-9V41.3h9V56.5z" />
    </g>
</svg>