<svg xmlns="http://www.w3.org/2000/svg" xmlns:xlink="http://www.w3.org/1999/xlink" version="1.1" x="0px" y="0px"
    viewBox="0 0 100 100" style="enable-background:new 0 0 100 100;" xml:space="preserve">
    <g fill="white" stroke-width="2px" stroke="white">
        <g>
            <path
                d="M92.3,13.4c0,0-11.3,0-19.3,0c-0.9,0-3,0-6.1,0c-16.6,0-59.1,0-59.1,0c-1.6,0-2.8,1.3-2.8,2.8V28v55.7    c0,0.6,0.2,1.1,0.5,1.6c0.5,0.8,1.4,1.2,2.3,1.2l0,0h84.4l0,0c1,0,1.8-0.5,2.3-1.2c0.3-0.4,0.5-1,0.5-1.6V28V16.2    C95.1,14.7,93.8,13.4,92.3,13.4z M7.9,83.8V16.2h59.1H73h19.3v67.5H7.9z" />
            <g>
                <g>
                    <path
                        d="M44.1,51.6h-27c-0.9,0-1.6-0.7-1.6-1.6c0-0.9,0.7-1.6,1.6-1.6h27c0.9,0,1.6,0.7,1.6,1.6C45.7,50.9,44.9,51.6,44.1,51.6z      " />
                </g>
                <g>
                    <path
                        d="M44.1,62.2h-27c-0.9,0-1.6-0.7-1.6-1.6c0-0.9,0.7-1.6,1.6-1.6h27c0.9,0,1.6,0.7,1.6,1.6C45.7,61.5,45,62.2,44.1,62.2z" />
                </g>
                <g>
                    <path
                        d="M44.1,72.6h-27c-0.9,0-1.6-0.7-1.6-1.6s0.7-1.6,1.6-1.6h27c0.9,0,1.6,0.7,1.6,1.6S45,72.6,44.1,72.6z" />
                </g>
                <g>
                    <path
                        d="M44.1,41.1h-27c-0.9,0-1.6-0.7-1.6-1.6c0-0.9,0.7-1.6,1.6-1.6h27c0.9,0,1.6,0.7,1.6,1.6C45.7,40.4,44.9,41.1,44.1,41.1z      " />
                </g>
                <g>
                    <path
                        d="M44.1,30.6h-27c-0.9,0-1.6-0.7-1.6-1.6c0-0.9,0.7-1.6,1.6-1.6h27c0.9,0,1.6,0.7,1.6,1.6C45.7,29.9,44.9,30.6,44.1,30.6z      " />
                </g>
                <g>
                    <path
                        d="M83,51.6H56c-0.9,0-1.6-0.7-1.6-1.6c0-0.9,0.7-1.6,1.6-1.6h27c0.9,0,1.6,0.7,1.6,1.6C84.5,50.9,83.8,51.6,83,51.6z" />
                </g>
                <g>
                    <path
                        d="M83,62.2H56c-0.9,0-1.6-0.7-1.6-1.6c0-0.9,0.7-1.6,1.6-1.6h27c0.9,0,1.6,0.7,1.6,1.6C84.6,61.5,83.9,62.2,83,62.2z" />
                </g>
                <g>
                    <path
                        d="M83,72.6H56c-0.9,0-1.6-0.7-1.6-1.6s0.7-1.6,1.6-1.6h27c0.9,0,1.6,0.7,1.6,1.6S83.9,72.6,83,72.6z" />
                </g>
                <g>
                    <path
                        d="M83,41.1H56c-0.9,0-1.6-0.7-1.6-1.6c0-0.9,0.7-1.6,1.6-1.6h27c0.9,0,1.6,0.7,1.6,1.6C84.5,40.4,83.8,41.1,83,41.1z" />
                </g>
                <g>
                    <path
                        d="M83,30.6H56c-0.9,0-1.6-0.7-1.6-1.6c0-0.9,0.7-1.6,1.6-1.6h27c0.9,0,1.6,0.7,1.6,1.6C84.5,29.9,83.8,30.6,83,30.6z" />
                </g>
            </g>
        </g>
    </g>
</svg>